<svg width="334" height="13" viewBox="0 0 334 13" fill="none" xmlns="http://www.w3.org/2000/svg">
<rect opacity="0.35" x="308.574" y="0.833344" width="21" height="10.3333" rx="2.16667" stroke="black"/>
<path opacity="0.4" d="M331.074 4V8C331.878 7.66122 332.402 6.87313 332.402 6C332.402 5.12687 331.878 4.33878 331.074 4Z" fill="black"/>
<rect x="310.074" y="2.33334" width="18" height="7.33333" rx="1.33333" fill="black"/>
<path fill-rule="evenodd" clip-rule="evenodd" d="M295.404 2.60799C297.62 2.60808 299.751 3.45952 301.357 4.98632C301.478 5.10419 301.671 5.10271 301.791 4.98299L302.947 3.81632C303.007 3.7556 303.04 3.67334 303.04 3.58776C303.039 3.50218 303.005 3.42033 302.944 3.36032C298.729 -0.679229 292.079 -0.679229 287.864 3.36032C287.803 3.42029 287.768 3.50211 287.768 3.5877C287.767 3.67328 287.801 3.75555 287.861 3.81632L289.017 4.98299C289.136 5.10289 289.33 5.10437 289.451 4.98632C291.057 3.45942 293.188 2.60798 295.404 2.60799ZM295.404 6.40365C296.622 6.40358 297.796 6.85611 298.698 7.67332C298.82 7.7893 299.013 7.78678 299.132 7.66765L300.286 6.50099C300.347 6.43979 300.381 6.35677 300.38 6.27051C300.379 6.18424 300.344 6.10193 300.282 6.04199C297.533 3.4856 293.277 3.4856 290.529 6.04199C290.467 6.10193 290.432 6.18428 290.431 6.27058C290.43 6.35687 290.464 6.43988 290.525 6.50099L291.679 7.66765C291.798 7.78678 291.99 7.7893 292.113 7.67332C293.014 6.85665 294.187 6.40416 295.404 6.40365ZM297.717 8.95747C297.719 9.04398 297.685 9.12738 297.623 9.18799L295.626 11.2037C295.567 11.2629 295.487 11.2962 295.404 11.2962C295.321 11.2962 295.241 11.2629 295.183 11.2037L293.185 9.18799C293.123 9.12733 293.089 9.04391 293.091 8.9574C293.093 8.87089 293.13 8.78897 293.195 8.73099C294.47 7.6521 296.338 7.6521 297.614 8.73099C297.678 8.78902 297.715 8.87096 297.717 8.95747Z" fill="black"/>
<path fill-rule="evenodd" clip-rule="evenodd" d="M281.74 0.666656H280.74C280.188 0.666656 279.74 1.11437 279.74 1.66666V10.3333C279.74 10.8856 280.188 11.3333 280.74 11.3333H281.74C282.293 11.3333 282.74 10.8856 282.74 10.3333V1.66666C282.74 1.11437 282.293 0.666656 281.74 0.666656ZM276.074 2.99999H277.074C277.626 2.99999 278.074 3.44771 278.074 3.99999V10.3333C278.074 10.8856 277.626 11.3333 277.074 11.3333H276.074C275.522 11.3333 275.074 10.8856 275.074 10.3333V3.99999C275.074 3.44771 275.522 2.99999 276.074 2.99999ZM272.407 5.33332H271.407C270.855 5.33332 270.407 5.78104 270.407 6.33332V10.3333C270.407 10.8856 270.855 11.3333 271.407 11.3333H272.407C272.959 11.3333 273.407 10.8856 273.407 10.3333V6.33332C273.407 5.78104 272.959 5.33332 272.407 5.33332ZM267.74 7.33332H266.74C266.188 7.33332 265.74 7.78104 265.74 8.33332V10.3333C265.74 10.8856 266.188 11.3333 266.74 11.3333H267.74C268.293 11.3333 268.74 10.8856 268.74 10.3333V8.33332C268.74 7.78104 268.293 7.33332 267.74 7.33332Z" fill="black"/>
<path fill-rule="evenodd" clip-rule="evenodd" d="M4.00635 12.271C1.99951 12.271 0.439453 11.0771 0.13916 9.31934H2.3291C2.53418 10.0151 3.19336 10.4546 4.021 10.4546C5.47119 10.4546 6.3501 9.05566 6.30615 6.8584H6.17432C5.69092 7.85449 4.70947 8.41846 3.479 8.41846C1.47217 8.41846 0 6.93896 0 4.91748C0 2.72021 1.67725 1.16016 4.04297 1.16016C5.56641 1.16016 6.79688 1.82666 7.5293 3.06445C8.11523 3.97266 8.41553 5.18848 8.41553 6.63135C8.41553 10.147 6.76025 12.271 4.00635 12.271ZM4.05762 6.71191C5.16357 6.71191 5.97656 5.92822 5.97656 4.86621C5.97656 3.79688 5.14893 2.96924 4.06494 2.96924C2.98096 2.96924 2.146 3.78955 2.146 4.84424C2.146 5.92822 2.95166 6.71191 4.05762 6.71191ZM11.5286 10.9307C12.3196 10.9307 12.825 10.396 12.825 9.65625C12.825 8.9165 12.3196 8.38916 11.5286 8.38916C10.7449 8.38916 10.2322 8.9165 10.2322 9.65625C10.2322 10.396 10.7449 10.9307 11.5286 10.9307ZM11.5286 5.52539C12.3196 5.52539 12.825 4.99072 12.825 4.25098C12.825 3.51123 12.3196 2.98389 11.5286 2.98389C10.7449 2.98389 10.2322 3.51123 10.2322 4.25098C10.2322 4.99072 10.7449 5.52539 11.5286 5.52539ZM19.8419 12V10.1543H14.671V8.19873C15.6231 6.4043 17.0001 4.22168 18.8531 1.43115H21.9513V8.31592H23.3355V10.1543H21.9513V12H19.8419ZM16.6559 8.26465V8.38184H19.8932V3.15234H19.776C18.8092 4.59521 17.8644 6.07471 16.6559 8.26465ZM27.3056 12H29.5175V1.43115H27.3129L24.581 3.31348V5.37158L27.1737 3.58447H27.3056V12Z" fill="black"/>
</svg>
